<?xml version="1.0" standalone="no"?>
<!DOCTYPE svg PUBLIC "-//W3C//DTD SVG 20010904//EN"
 "http://www.w3.org/TR/2001/REC-SVG-20010904/DTD/svg10.dtd">
<svg version="1.0" xmlns="http://www.w3.org/2000/svg"
 width="700.000000pt" height="700.000000pt" viewBox="0 0 700.000000 700.000000"
 preserveAspectRatio="xMidYMid meet">
<metadata>
Created by potrace 1.14, written by Peter Selinger 2001-2017
</metadata>
<g transform="translate(0.000000,700.000000) scale(0.100000,-0.100000)"
fill="#000000" stroke="none">
<path d="M1799 6886 c-2 -2 -33 -7 -67 -10 -35 -3 -67 -8 -71 -10 -3 -2 -25
-7 -48 -10 -73 -11 -225 -65 -338 -120 -236 -115 -456 -311 -597 -531 -87
-135 -176 -341 -204 -474 -82 -390 -19 -782 179 -1111 46 -76 148 -208 205
-264 l39 -40 -34 -95 c-41 -114 -83 -281 -97 -381 -3 -25 -8 -56 -11 -69 -22
-114 -22 -411 0 -591 14 -115 64 -322 108 -448 19 -56 20 -65 7 -75 -23 -18
-121 -135 -162 -192 -174 -246 -269 -551 -269 -860 1 -169 24 -314 78 -474
179 -539 648 -926 1218 -1009 83 -12 355 -8 440 7 313 52 587 193 811 416 193
192 324 414 389 658 16 58 22 68 44 73 225 46 457 130 641 231 212 117 436
296 596 476 l50 57 125 -27 c188 -40 445 -39 629 3 457 103 836 408 1038 837
18 37 32 72 32 78 0 5 4 17 10 27 27 48 76 251 86 355 36 369 -49 705 -255
1012 -29 43 -58 84 -65 90 -6 7 -29 33 -51 60 -92 110 -290 262 -435 335 -110
56 -276 114 -380 135 -203 40 -444 37 -633 -9 l-92 -22 -130 131 c-191 193
-362 319 -588 433 -186 95 -390 167 -552 196 -34 6 -55 30 -55 62 0 42 -62
211 -121 329 -209 422 -613 722 -1083 803 -97 17 -375 29 -387 18z m302 -611
c27 -7 49 -11 49 -9 0 7 145 -49 201 -78 211 -109 374 -308 445 -543 36 -120
43 -318 15 -440 -116 -511 -630 -818 -1125 -673 -246 71 -455 249 -561 476
-137 291 -114 611 62 879 166 254 441 402 747 401 65 0 141 -6 167 -13z m1553
-1462 c133 -67 244 -143 348 -242 l57 -54 -65 -76 c-159 -185 -268 -412 -325
-681 -32 -149 -32 -417 0 -570 58 -276 186 -531 360 -718 l31 -33 -53 -50
c-28 -27 -77 -69 -107 -92 -30 -23 -56 -45 -58 -49 -2 -5 -8 -8 -12 -8 -5 0
-28 -13 -52 -29 -77 -51 -211 -115 -313 -149 -83 -28 -97 -29 -100 -12 -7 34
-60 161 -101 241 -225 436 -639 727 -1134 799 -78 12 -274 15 -347 5 -101 -12
-121 -16 -176 -29 -58 -13 -58 -13 -67 9 -48 125 -69 442 -41 615 21 130 53
250 67 250 7 0 43 -6 81 -14 77 -17 180 -27 268 -29 61 -1 245 12 255 18 3 2
23 6 45 9 150 24 363 107 510 199 178 111 367 298 471 467 52 84 134 245 134
263 0 2 7 21 15 40 l15 36 102 -35 c57 -20 143 -56 192 -81z m1643 -453 c470
-85 789 -522 730 -1000 -41 -338 -283 -628 -613 -736 -101 -33 -151 -39 -294
-38 -130 1 -203 14 -310 56 -272 108 -471 336 -546 628 -23 89 -27 275 -8 372
70 364 352 647 714 717 101 20 223 20 327 1z m-3227 -1866 c135 -21 247 -65
363 -141 116 -77 256 -235 306 -348 70 -155 91 -250 91 -405 1 -346 -207 -667
-526 -811 -278 -126 -615 -98 -868 72 -69 46 -178 148 -213 199 -9 14 -23 31
-30 39 -24 24 -112 215 -127 277 -81 320 11 648 248 877 34 33 79 72 101 87
120 83 282 144 414 156 36 4 67 8 69 9 4 4 125 -4 172 -11z"/>
<path d="M1840 5754 c-109 -29 -199 -106 -248 -212 -22 -48 -26 -72 -26 -147
-1 -81 2 -96 31 -155 51 -106 115 -164 222 -200 180 -60 373 25 454 200 26 56
30 77 30 150 1 118 -26 185 -107 266 -97 97 -225 132 -356 98z"/>
<path d="M5009 3826 c-65 -26 -77 -34 -116 -67 -196 -167 -158 -493 72 -611
190 -99 419 -21 511 171 53 112 42 261 -27 365 -94 141 -288 204 -440 142z"/>
<path d="M1835 1966 c-114 -37 -191 -103 -239 -206 -69 -148 -32 -320 94 -433
70 -63 143 -90 245 -90 101 0 175 27 244 89 189 170 164 463 -50 599 -76 49
-212 68 -294 41z"/>
</g>
</svg>
